<?xml version="1.0" encoding="UTF-8"?><svg id="Layer_1" xmlns="http://www.w3.org/2000/svg" viewBox="0 0 32 32"><g id="k8WEbc.tif"><path d="m7.67,28.99c-.45-.15-.94-.23-1.35-.46-.95-.51-1.56-1.33-1.61-2.41-.07-1.72-.02-3.45-.02-5.2h3.19v4.79h19.37V6.39H7.9v4.8h-3.24c0-.18,0-.34,0-.5,0-1.37,0-2.75,0-4.12,0-2.06,1.38-3.43,3.45-3.43,6.32,0,12.64,0,18.96,0,1.83,0,3.05,1.01,3.4,2.8.01.07.04.14.06.21v19.83c-.02.09-.05.19-.07.28-.27,1.38-1.09,2.26-2.44,2.63-.17.05-.34.08-.51.12H7.67Z" style="stroke-width:0px;"/><path d="m1.47,17.67v-3.23h12.87v-4.7c2.12,2.12,4.23,4.24,6.3,6.31-2.04,2.04-4.17,4.17-6.28,6.27v-4.66H1.47Z" style="stroke-width:0px;"/></g></svg>