<?xml version="1.0" encoding="UTF-8"?><svg id="Layer_1" xmlns="http://www.w3.org/2000/svg" viewBox="0 0 32 32"><g id="LpLsmw"><path d="m21.07,29.42H3.7c-.49-.12-.92-.32-1.26-.71-.27-.31-.4-.68-.51-1.06,0-6.52,0-13.05,0-19.57.06-.05.13-.09.18-.15,1.41-1.41,2.82-2.82,4.23-4.23.37-.37.73-.75,1.09-1.12,4.55,0,9.09,0,13.64,0,.03.01.06.03.09.04,1.07.24,1.69,1.01,1.69,2.09,0,.95,0,1.9,0,2.85,0,.16.05.26.19.34,3.36,1.9,4.27,6.36,1.92,9.42-.29.38-.63.71-.96,1.08.27.38.54.78.83,1.17.03.04.14.06.2.04.88-.31,1.84.03,2.4.85.78,1.15,1.62,2.27,2.4,3.42.5.74,1.16,1.38,1.39,2.29v.57c-.02.06-.04.12-.06.18-.22.79-.72,1.31-1.52,1.49-.82.18-1.53-.09-2.02-.77-1.18-1.63-2.32-3.27-3.48-4.91-.53-.75-.57-1.53-.11-2.33.03-.05.04-.15.02-.19-.29-.42-.58-.83-.87-1.24-.25.04-.33.17-.32.4,0,2.65,0,5.31,0,7.96,0,.76-.32,1.36-.96,1.76-.24.15-.54.22-.81.32Zm.77-22.1c0-.87,0-1.72,0-2.57,0-.74-.42-1.16-1.15-1.16-4.06,0-8.12,0-12.18,0-.08,0-.17,0-.26.01,0,.13,0,.22,0,.32,0,1.1,0,2.2,0,3.3,0,.99-.62,1.61-1.61,1.61-1.13,0-2.26,0-3.4,0-.09,0-.18,0-.3,0,0,.11,0,.19,0,.27,0,6.04,0,12.07,0,18.11,0,.78.41,1.2,1.2,1.2,5.52,0,11.04,0,16.56,0,.73,0,1.15-.43,1.15-1.16,0-2.47,0-4.94,0-7.42,0-.09,0-.17,0-.25-3.16.73-5.75-.1-7.45-2.9-1.35-2.22-1.29-4.58.16-6.73,1.74-2.6,4.26-3.35,7.29-2.63Zm3.42,6.15c.03-2.94-2.37-5.37-5.32-5.4-3-.03-5.41,2.34-5.44,5.34-.03,2.97,2.36,5.41,5.34,5.43,2.97.03,5.4-2.37,5.43-5.37Zm.4,7.04c-.34,0-.64.17-.82.52-.19.36-.17.71.06,1.04,1.16,1.66,2.33,3.31,3.51,4.96.34.48.93.57,1.39.25.44-.31.55-.91.22-1.38-1.17-1.66-2.35-3.32-3.52-4.98-.19-.27-.45-.39-.83-.4ZM7.24,4.3c-1.18,1.18-2.34,2.34-3.53,3.52.14,0,.28,0,.41,0,.84,0,1.69,0,2.53,0,.36,0,.58-.16.59-.46.01-1.02,0-2.04,0-3.07Z" style="stroke:#000; stroke-miterlimit:10; stroke-width:.5px;"/><path d="m5.11,23.66v-.98h14.39v.98H5.11Z" style="stroke:#000; stroke-miterlimit:10; stroke-width:.5px;"/><path d="m5.12,19.77h8.86v.97H5.12v-.97Z" style="stroke:#000; stroke-miterlimit:10; stroke-width:.5px;"/><path d="m11.8,11.03v.98h-6.68v-.98h6.68Z" style="stroke:#000; stroke-miterlimit:10; stroke-width:.5px;"/><path d="m11.78,14.93h-6.67v-.98h6.67v.98Z" style="stroke:#000; stroke-miterlimit:10; stroke-width:.5px;"/><path d="m5.11,16.84c.1,0,.17,0,.25,0,2.06,0,4.11,0,6.17,0,.23,0,.29.07.27.29-.02.23,0,.46,0,.71h-6.69v-.99Z" style="stroke:#000; stroke-miterlimit:10; stroke-width:.5px;"/></g></svg>